<?xml version="1.0" standalone="no"?>
<!DOCTYPE svg PUBLIC "-//W3C//DTD SVG 20010904//EN"
 "http://www.w3.org/TR/2001/REC-SVG-20010904/DTD/svg10.dtd">
<svg version="1.0" xmlns="http://www.w3.org/2000/svg"
 width="260.000000pt" height="260.000000pt" viewBox="0 0 260.000000 260.000000"
 preserveAspectRatio="xMidYMid meet">
<metadata>
Created by potrace 1.16, written by Peter Selinger 2001-2019
</metadata>
<g transform="translate(0.000000,260.000000) scale(0.100000,-0.100000)"
fill="#000000" stroke="none">
<path d="M840 2032 c0 -6 187 -332 241 -420 22 -35 39 -65 39 -66 0 -10 220
-381 227 -383 4 -1 34 43 65 100 32 56 101 176 154 267 53 91 134 233 181 315
47 83 92 157 100 167 8 9 10 18 6 21 -5 3 -76 6 -158 6 l-150 1 -88 -153 c-48
-85 -93 -161 -100 -171 -12 -16 -24 1 -111 154 l-99 171 -153 -2 c-85 -1 -154
-4 -154 -7z"/>
</g>
</svg>
